<?xml version="1.0" encoding="UTF-8"?>
<svg version="1.1" xmlns="http://www.w3.org/2000/svg" width="226" height="179">
<path d="M0 0 C74.58 0 149.16 0 226 0 C226 59.07 226 118.14 226 179 C151.42 179 76.84 179 0 179 C0 119.93 0 60.86 0 0 Z " fill="#161E2D" transform="translate(0,0)"/>
<path d="M0 0 C1.36089276 1.13783667 2.71565895 2.28306482 4.0625 3.4375 C4.65160156 3.88351563 5.24070313 4.32953125 5.84765625 4.7890625 C20.57422351 16.26169577 29.76101764 36.20829849 32.0625 54.4375 C34.0943754 76.93501191 28.4521718 97.88210041 14.0625 115.4375 C13.52109375 116.14132813 12.9796875 116.84515625 12.421875 117.5703125 C0.57084294 132.24027937 -18.46881564 141.51793888 -36.9375 144.4375 C-61.0153714 146.76963813 -81.3750698 139.92224982 -100.5078125 125.5 C-115.44460323 113.00930392 -125.46018556 93.69511412 -127.9375 74.4375 C-129.27996447 51.56822289 -124.62977423 31.36207456 -109.9375 13.4375 C-109.12539062 12.38175781 -109.12539062 12.38175781 -108.296875 11.3046875 C-82.34398564 -20.82146195 -32.08680356 -24.47023908 0 0 Z " fill="#4464EC" transform="translate(158.9375,25.5625)"/>
<path d="M0 0 C8 0 8 0 10.00976562 1.74414062 C10.70102539 2.93813477 10.70102539 2.93813477 11.40625 4.15625 C11.921875 5.01347656 12.4375 5.87070313 12.96875 6.75390625 C13.4740625 7.66011719 13.979375 8.56632812 14.5 9.5 C15.03625 10.40621094 15.5725 11.31242187 16.125 12.24609375 C17.44304138 14.4820568 18.72509293 16.7391648 20 19 C20.33 12.73 20.66 6.46 21 0 C23.64 0 26.28 0 29 0 C29 10.89 29 21.78 29 33 C20 33 20 33 17.87670898 31.1640625 C17.42110596 30.32617188 16.96550293 29.48828125 16.49609375 28.625 C15.98369141 27.72265625 15.47128906 26.8203125 14.94335938 25.890625 C14.44642578 24.93671875 13.94949219 23.9828125 13.4375 23 C12.90576172 22.04609375 12.37402344 21.0921875 11.82617188 20.109375 C10.52021082 17.75629202 9.25595406 15.38014983 8 13 C7.67 19.6 7.34 26.2 7 33 C4.69 33 2.38 33 0 33 C0 22.11 0 11.22 0 0 Z " fill="#F6F6FD" transform="translate(84,73)"/>
<path d="M0 0 C2.31 0 4.62 0 7 0 C7.08725659 4.2290362 7.1404789 8.45784012 7.1875 12.6875 C7.21263672 13.88568359 7.23777344 15.08386719 7.26367188 16.31835938 C7.27333984 17.47529297 7.28300781 18.63222656 7.29296875 19.82421875 C7.3086792 20.88729248 7.32438965 21.95036621 7.34057617 23.0456543 C6.94855385 26.44627231 6.03258972 28.26862336 4 31 C-0.05815166 33.61525329 -3.19144587 34.70124748 -8 34 C-11.45405075 32.20655057 -13.48781603 30.93124358 -15.375 27.5 C-16 25 -16 25 -16 21 C-13.36 21 -10.72 21 -8 21 C-7.34 22.98 -6.68 24.96 -6 27 C-4.35 27 -2.7 27 -1 27 C-0.67 18.09 -0.34 9.18 0 0 Z " fill="#F7F5FC" transform="translate(132,73)"/>
</svg>
